<?xml version="1.0" encoding="utf-8"?>
<svg viewBox="0 0 500 500" width="500" height="500" xmlns="http://www.w3.org/2000/svg" xmlns:bx="https://boxy-svg.com">
    <rect x="151.221" y="125.829" width="21.998" height="133.447" style="fill: rgb(154, 154, 154); stroke: rgb(0, 0, 0);" rx="10.999" ry="10.999" transform="matrix(1, 0, 0, 1, -7.105427357601002e-15, 0)"/>
    <rect x="181.744" y="184.937" width="96.705" height="15.563" style="stroke: rgb(0, 0, 0); fill: rgb(255, 255, 255);" rx="3.6" ry="3.6" transform="matrix(1, 0, 0, 1, -7.105427357601002e-15, 0)"/>
    <rect x="124.052" y="140.557" width="17.791" height="106.438" style="stroke: rgb(0, 0, 0); fill: rgb(154, 154, 154);" rx="8.896" ry="8.896" transform="matrix(1, 0, 0, 1, -7.105427357601002e-15, 0)"/>
    <rect x="104.24" y="158.291" width="13.505" height="73.074" style="stroke: rgb(0, 0, 0); fill: rgb(154, 154, 154);" rx="6.753" ry="6.753" transform="matrix(1, 0, 0, 1, -7.105427357601002e-15, 0)"/>
    <rect x="-308.972" y="125.829" width="21.998" height="133.447" style="stroke: rgb(0, 0, 0); fill: rgb(154, 154, 154);" rx="10.999" ry="10.999" transform="matrix(-1, 0, 0, 1, -7.105427357601002e-15, 0)"/>
    <rect x="-336.141" y="140.557" width="17.791" height="106.438" style="stroke: rgb(0, 0, 0); fill: rgb(154, 154, 154);" rx="8.896" ry="8.896" transform="matrix(-1, 0, 0, 1, -7.105427357601002e-15, 0)"/>
    <rect x="-355.953" y="158.291" width="13.505" height="73.074" style="stroke: rgb(0, 0, 0); fill: rgb(154, 154, 154);" rx="6.753" ry="6.753" transform="matrix(-1, 0, 0, 1, -7.105427357601002e-15, 0)"/>
    <text style="fill: rgb(255, 255, 255); font-family: Impact; font-size: 42px; letter-spacing: 4.7px; stroke: rgb(255, 255, 255); stroke-width: 0px; white-space: pre; text-decoration: underline solid rgba(255, 255, 255, 0.9); transform-origin: 211.282px 283.63px;" x="181.744" y="301.636">IRON</text>
    <rect x="-271.71" y="158.291" width="82.442" height="7.63" style="stroke: rgb(0, 0, 0); fill: rgb(84, 89, 176);" transform="matrix(-1, 0, 0, 1, -7.105427357601002e-15, 0)" rx="3.815" ry="3.815"/>
    <rect x="-271.71" y="223.735" width="82.442" height="7.63" style="stroke: rgb(0, 0, 0); fill: rgb(84, 89, 176);" transform="matrix(-1, 0, 0, 1, -7.105427357601002e-15, 0)" rx="3.815" ry="3.815"/>
    <rect x="-278.449" y="131.286" width="96.705" height="9.271" style="stroke: rgb(0, 0, 0); fill: rgb(84, 89, 176);" transform="matrix(-1, 0, 0, 1, -7.105427357601002e-15, 0)" rx="4.635" ry="4.635"/>
    <rect x="-278.449" y="246.995" width="96.705" height="9.271" style="stroke: rgb(0, 0, 0); fill: rgb(84, 89, 176);" transform="matrix(-1, 0, 0, 1, -7.105427357601002e-15, 0)" rx="4.635" ry="4.635"/>
    <path style="stroke: rgb(0, 0, 0); fill: rgb(67, 67, 67);" d="M 151.221 191.416 H 173.219 V 248.33 A 10.999 10.999 0 0 1 162.22 259.329 H 162.22 A 10.999 10.999 0 0 1 151.221 248.33 V 191.416 Z" transform="matrix(1, 0, 0, 1, -7.105427357601002e-15, 0)" bx:shape="rect 151.221 191.416 21.998 67.913 0 0 10.999 10.999 1@164b6c4c"/>
    <path style="stroke: rgb(0, 0, 0); fill: rgb(67, 67, 67);" d="M 124.052 191.416 H 141.843 V 238.099 A 8.896 8.896 0 0 1 132.948 246.995 H 132.948 A 8.896 8.896 0 0 1 124.052 238.099 V 191.416 Z" transform="matrix(1, 0, 0, 1, -7.105427357601002e-15, 0)" bx:shape="rect 124.052 191.416 17.791 55.579 0 0 8.896 8.896 1@0cc5d3e4"/>
    <path style="stroke: rgb(0, 0, 0); fill: rgb(67, 67, 67);" d="M 104.24 191.416 H 117.745 V 224.612 A 6.753 6.753 0 0 1 110.992 231.365 H 110.992 A 6.753 6.753 0 0 1 104.24 224.612 V 191.416 Z" transform="matrix(1, 0, 0, 1, -7.105427357601002e-15, 0)" bx:shape="rect 104.24 191.416 13.505 39.949 0 0 6.753 6.753 1@ba91a7fe"/>
    <path style="stroke: rgb(0, 0, 0); fill: rgb(67, 67, 67);" d="M -308.972 191.362 H -286.974 V 248.276 A 10.999 10.999 0 0 1 -297.973 259.275 H -297.973 A 10.999 10.999 0 0 1 -308.972 248.276 V 191.362 Z" transform="matrix(-1, 0, 0, 1, -7.105427357601002e-15, 0)" bx:shape="rect -308.972 191.362 21.998 67.913 0 0 10.999 10.999 1@b4993602"/>
    <path style="stroke: rgb(0, 0, 0); fill: rgb(67, 67, 67);" d="M -336.141 191.362 H -318.35 V 238.045 A 8.896 8.896 0 0 1 -327.246 246.941 H -327.245 A 8.896 8.896 0 0 1 -336.141 238.045 V 191.362 Z" transform="matrix(-1, 0, 0, 1, -7.105427357601002e-15, 0)" bx:shape="rect -336.141 191.362 17.791 55.579 0 0 8.896 8.896 1@374b10f5"/>
    <path style="stroke: rgb(0, 0, 0); fill: rgb(67, 67, 67);" d="M -355.953 191.362 H -342.448 V 224.558 A 6.753 6.753 0 0 1 -349.2 231.311 H -349.2 A 6.753 6.753 0 0 1 -355.953 224.558 V 191.362 Z" transform="matrix(-1, 0, 0, 1, -7.105427357601002e-15, 0)" bx:shape="rect -355.953 191.362 13.505 39.949 0 0 6.753 6.753 1@1d1dcf46"/>
</svg>